<svg width="600" height="500" viewBox="0 0 600 500" fill="none" xmlns="http://www.w3.org/2000/svg">
  <!-- Background Elements -->
  <circle cx="300" cy="250" r="200" fill="#EEF2FF" opacity="0.5"/>
  <circle cx="300" cy="250" r="150" fill="#E0E7FF" opacity="0.5"/>
  
  <!-- Dashboard Frame -->
  <rect x="150" y="100" width="300" height="220" rx="10" fill="white" stroke="#C7D2FE" stroke-width="2"/>
  <rect x="150" y="100" width="300" height="30" rx="10" fill="#4F46E5" stroke="#4338CA" stroke-width="2"/>
  <circle cx="170" cy="115" r="5" fill="#EF4444"/>
  <circle cx="190" cy="115" r="5" fill="#F59E0B"/>
  <circle cx="210" cy="115" r="5" fill="#10B981"/>
  
  <!-- Dashboard Content -->
  <rect x="165" y="145" width="120" height="10" rx="5" fill="#E0E7FF"/>
  <rect x="165" y="165" width="80" height="10" rx="5" fill="#C7D2FE"/>
  
  <!-- Charts -->
  <rect x="165" y="190" width="100" height="80" rx="5" fill="#F5F3FF" stroke="#DDD6FE" stroke-width="1"/>
  <path d="M175 250 L185 230 L195 245 L205 210 L215 225 L225 220 L235 240 L245 215 L255 250" stroke="#8B5CF6" stroke-width="2" stroke-linecap="round" stroke-linejoin="round"/>
  
  <rect x="280" y="190" width="150" height="80" rx="5" fill="#F5F3FF" stroke="#DDD6FE" stroke-width="1"/>
  <circle cx="310" cy="230" r="30" fill="#EEF2FF" stroke="#DDD6FE" stroke-width="1"/>
  <path d="M310 230 L310 200" stroke="#8B5CF6" stroke-width="3" stroke-linecap="round"/>
  <path d="M310 230 L335 240" stroke="#C4B5FD" stroke-width="3" stroke-linecap="round"/>
  <path d="M310 230 L290 245" stroke="#4F46E5" stroke-width="3" stroke-linecap="round"/>
  <circle cx="390" cy="220" r="20" fill="#4F46E5" opacity="0.1"/>
  <rect x="375" y="200" width="30" height="5" rx="2.5" fill="#4F46E5"/>
  <rect x="375" y="210" width="30" height="5" rx="2.5" fill="#4F46E5"/>
  <rect x="375" y="220" width="30" height="5" rx="2.5" fill="#4F46E5"/>
  <rect x="375" y="230" width="20" height="5" rx="2.5" fill="#4F46E5"/>
  
  <!-- Skills Assessment Elements -->
  <rect x="180" y="330" width="240" height="120" rx="10" fill="white" stroke="#C7D2FE" stroke-width="2"/>
  <rect x="200" y="350" width="200" height="15" rx="7.5" fill="#EEF2FF"/>
  <rect x="200" y="350" width="140" height="15" rx="7.5" fill="#4F46E5"/>
  <text x="345" y="363" fill="#4F46E5" font-family="Arial" font-size="12" font-weight="bold">70%</text>
  
  <rect x="200" y="380" width="200" height="15" rx="7.5" fill="#EEF2FF"/>
  <rect x="200" y="380" width="180" height="15" rx="7.5" fill="#8B5CF6"/>
  <text x="385" y="393" fill="#8B5CF6" font-family="Arial" font-size="12" font-weight="bold">90%</text>
  
  <rect x="200" y="410" width="200" height="15" rx="7.5" fill="#EEF2FF"/>
  <rect x="200" y="410" width="160" height="15" rx="7.5" fill="#C4B5FD"/>
  <text x="365" y="423" fill="#C4B5FD" font-family="Arial" font-size="12" font-weight="bold">80%</text>
  
  <!-- Connected Nodes Effect -->
  <circle cx="150" cy="360" r="10" fill="#4F46E5" opacity="0.7"/>
  <circle cx="100" cy="320" r="8" fill="#8B5CF6" opacity="0.7"/>
  <circle cx="110" cy="400" r="6" fill="#C4B5FD" opacity="0.7"/>
  <circle cx="450" cy="380" r="10" fill="#4F46E5" opacity="0.7"/>
  <circle cx="500" cy="330" r="8" fill="#8B5CF6" opacity="0.7"/>
  <circle cx="480" cy="430" r="6" fill="#C4B5FD" opacity="0.7"/>
  
  <line x1="150" y1="360" x2="100" y2="320" stroke="#C7D2FE" stroke-width="1"/>
  <line x1="150" y1="360" x2="110" y2="400" stroke="#C7D2FE" stroke-width="1"/>
  <line x1="450" y1="380" x2="500" y2="330" stroke="#C7D2FE" stroke-width="1"/>
  <line x1="450" y1="380" x2="480" y2="430" stroke="#C7D2FE" stroke-width="1"/>
  
  <!-- Connecting Lines between Dashboard and Assessment -->
  <line x1="300" y1="320" x2="300" y2="330" stroke="#4F46E5" stroke-width="2" stroke-dasharray="5,5"/>
  <line x1="200" y1="270" x2="200" y2="350" stroke="#C7D2FE" stroke-width="1.5" stroke-dasharray="5,5"/>
  <line x1="400" y1="270" x2="400" y2="350" stroke="#C7D2FE" stroke-width="1.5" stroke-dasharray="5,5"/>
  
  <!-- Decorative Elements -->
  <circle cx="400" cy="140" r="15" fill="#EEF2FF" stroke="#C7D2FE" stroke-width="1.5"/>
  <path d="M392 140 L400 148 L408 132" stroke="#4F46E5" stroke-width="2" stroke-linecap="round" stroke-linejoin="round"/>
  
  <circle cx="90" cy="240" r="30" fill="#4F46E5" opacity="0.1"/>
  <path d="M85 240 L95 240 M90 235 L90 245" stroke="#4F46E5" stroke-width="2" stroke-linecap="round"/>
  
  <circle cx="500" cy="200" r="25" fill="#8B5CF6" opacity="0.1"/>
  <path d="M490 200 L510 200 M500 190 L500 210" stroke="#8B5CF6" stroke-width="2" stroke-linecap="round"/>
</svg> 